<svg width="48" height="48" viewBox="0 0 48 48" fill="none" xmlns="http://www.w3.org/2000/svg">
<circle opacity="0.5" cx="24" cy="24" r="23" stroke="#111111" stroke-width="2"/>
<path fill-rule="evenodd" clip-rule="evenodd" d="M13 13V18.005H14.8334V14.8334H18.005V13H13ZM13 29.995V35H18.005V33.1666H14.8334V29.995H13ZM29.995 35V33.1666H33.1666V29.995H35V35H29.995ZM33.1666 14.8334V18.005H35V13H29.995V14.8334H33.1666ZM30.1966 30.215H31.9016V31.92H30.1966V30.215ZM28.4916 30.215L30.1966 30.215V28.5101H31.9016V26.8051H30.1966V28.5101H28.4916V26.8051H26.7866V28.5101H28.4916V30.215ZM28.4916 30.215L28.4916 31.92H26.7866V30.215L28.4916 30.215ZM25.0815 28.51H26.7865V30.215H25.0815V28.51ZM30.1966 25.1H28.4916V26.805H30.1966V25.1ZM26.7865 25.1H25.0815V26.805H26.7865V25.1ZM31.9015 16.08V22.9H25.0815V16.08H31.9015ZM22.9 31.92V25.1H16.08V31.92H22.9ZM22.9 16.08V22.9H16.08V16.08H22.9ZM21.4334 26.5666V30.4534H17.5466V26.5666H21.4334ZM21.4334 21.4335V17.5466H17.5466V21.4335H21.4334ZM30.435 17.5466V21.4335H26.5484V17.5466H30.435Z" fill="#111111"/>
</svg>
